<?xml version="1.0" encoding="UTF-8"?>
<svg width="32" height="32" viewBox="0 0 32 32" fill="none" xmlns="http://www.w3.org/2000/svg">
  <!-- Outer ring with dashes -->
  <rect x="15" y="2" width="2" height="6" fill="currentColor" transform="rotate(0 16 16)" />
  <rect x="15" y="2" width="2" height="6" fill="currentColor" transform="rotate(30 16 16)" opacity="0.8" />
  <rect x="15" y="2" width="2" height="6" fill="currentColor" transform="rotate(60 16 16)" opacity="0.6" />
  <rect x="15" y="2" width="2" height="6" fill="currentColor" transform="rotate(90 16 16)" />
  <rect x="15" y="2" width="2" height="6" fill="currentColor" transform="rotate(120 16 16)" opacity="0.8" />
  <rect x="15" y="2" width="2" height="6" fill="currentColor" transform="rotate(150 16 16)" opacity="0.6" />
  <rect x="15" y="2" width="2" height="6" fill="currentColor" transform="rotate(180 16 16)" />
  <rect x="15" y="2" width="2" height="6" fill="currentColor" transform="rotate(210 16 16)" opacity="0.8" />
  <rect x="15" y="2" width="2" height="6" fill="currentColor" transform="rotate(240 16 16)" opacity="0.6" />
  <rect x="15" y="2" width="2" height="6" fill="currentColor" transform="rotate(270 16 16)" />
  <rect x="15" y="2" width="2" height="6" fill="currentColor" transform="rotate(300 16 16)" opacity="0.8" />
  <rect x="15" y="2" width="2" height="6" fill="currentColor" transform="rotate(330 16 16)" opacity="0.6" />
  
  <!-- Middle hexagon -->
  <path d="M16 6L16 14" stroke="currentColor" stroke-width="2" stroke-opacity="0.6" transform="rotate(0 16 16)" />
  <path d="M16 6L16 14" stroke="currentColor" stroke-width="2" stroke-opacity="0.6" transform="rotate(60 16 16)" />
  <path d="M16 6L16 14" stroke="currentColor" stroke-width="2" stroke-opacity="0.6" transform="rotate(120 16 16)" />
  <path d="M16 6L16 14" stroke="currentColor" stroke-width="2" stroke-opacity="0.6" transform="rotate(180 16 16)" />
  <path d="M16 6L16 14" stroke="currentColor" stroke-width="2" stroke-opacity="0.6" transform="rotate(240 16 16)" />
  <path d="M16 6L16 14" stroke="currentColor" stroke-width="2" stroke-opacity="0.6" transform="rotate(300 16 16)" />
  
  <!-- Inner core -->
  <circle cx="16" cy="16" r="4" fill="currentColor" fill-opacity="0.2" />
  <circle cx="16" cy="16" r="3" fill="none" stroke="currentColor" stroke-opacity="0.4" />
  
  <style>
    svg { color: #7c3aed; }
    @media (prefers-color-scheme: dark) {
      svg { color: #8b5cf6; }
    }
  </style>
</svg> 